HIERARCHY
ROOT hip
{
	OFFSET 0.000000 0.000000 0.000000
	CHANNELS 6 Xposition Yposition Zposition Zrotation Yrotation Xrotation 
	JOINT lhipjoint
	{
		OFFSET 0.000000 0.000000 0.000000
		CHANNELS 3 Zrotation Yrotation Xrotation
		JOINT lfemur
		{
			OFFSET 1.363060 -1.794630 0.839290
			CHANNELS 3 Zrotation Yrotation Xrotation
			JOINT ltibia
			{
				OFFSET 2.448110 -6.726130 0.000000
				CHANNELS 3 Zrotation Yrotation Xrotation
				JOINT lfoot
				{
					OFFSET 2.562200 -7.039590 0.000000
					CHANNELS 3 Zrotation Yrotation Xrotation
					JOINT ltoes
					{
						OFFSET 0.157640 -0.433110 2.322550
						CHANNELS 3 Zrotation Yrotation Xrotation
						End Site
						{
							OFFSET 0.000000 0.000000 0.000000
						}
					}
				}
			}
		}
	}
	JOINT rhipjoint
	{
		OFFSET 0.000000 0.000000 0.000000
		CHANNELS 3 Zrotation Yrotation Xrotation
		JOINT rfemur
		{
			OFFSET -1.305520 -1.794630 0.839290
			CHANNELS 3 Zrotation Yrotation Xrotation
			JOINT rtibia
			{
				OFFSET -2.542530 -6.985550 0.000000
				CHANNELS 3 Zrotation Yrotation Xrotation
				JOINT rfoot
				{
					OFFSET -2.568260 -7.056230 0.000000
					CHANNELS 3 Zrotation Yrotation Xrotation
					JOINT rtoes
					{
						OFFSET -0.164730 -0.452590 2.363150
						CHANNELS 3 Zrotation Yrotation Xrotation
						End Site
						{
							OFFSET 0.000000 0.000000 0.000000
						}
					}
				}
			}
		}
	}
	JOINT lowerback
	{
		OFFSET 0.000000 0.000000 0.000000
		CHANNELS 3 Zrotation Yrotation Xrotation
		JOINT upperback
		{
			OFFSET 0.028270 2.035590 -0.193380
			CHANNELS 3 Zrotation Yrotation Xrotation
			JOINT thorax
			{
				OFFSET 0.056720 2.048850 -0.042750
				CHANNELS 3 Zrotation Yrotation Xrotation
				JOINT lowerneck
				{
					OFFSET 0.000000 0.000000 0.000000
					CHANNELS 3 Zrotation Yrotation Xrotation
					JOINT upperneck
					{
						OFFSET -0.054170 1.746240 0.172020
						CHANNELS 3 Zrotation Yrotation Xrotation
						JOINT head
						{
							OFFSET 0.104070 1.761360 -0.123970
							CHANNELS 3 Zrotation Yrotation Xrotation
							End Site
							{
								OFFSET 0.000000 0.000000 0.000000
							}
						}
					}
				}
				JOINT lclavicle
				{
					OFFSET 0.000000 0.000000 0.000000
					CHANNELS 3 Zrotation Yrotation Xrotation
					JOINT lhumerus
					{
						OFFSET 3.362410 1.200890 -0.311210
						CHANNELS 3 Zrotation Yrotation Xrotation
						JOINT lradius
						{
							OFFSET 4.983000 -0.000000 -0.000000
							CHANNELS 3 Zrotation Yrotation Xrotation
							JOINT lwrist
							{
								OFFSET 3.483560 -0.000000 -0.000000
								CHANNELS 3 Zrotation Yrotation Xrotation
								JOINT lhand
								{
									OFFSET 0.000000 0.000000 0.000000
									CHANNELS 3 Zrotation Yrotation Xrotation
									JOINT lfingers
									{
										OFFSET 0.715260 -0.000000 -0.000000
										CHANNELS 3 Zrotation Yrotation Xrotation
										End Site
										{
											OFFSET 0.000000 0.000000 0.000000
										}
									}
								}
								JOINT lthumb
								{
									OFFSET 0.000000 0.000000 0.000000
									CHANNELS 3 Zrotation Yrotation Xrotation
									End Site
									{
										OFFSET 0.000000 0.000000 0.000000
									}
								}
							}
						}
					}
				}
				JOINT rclavicle
				{
					OFFSET 0.000000 0.000000 0.000000
					CHANNELS 3 Zrotation Yrotation Xrotation
					JOINT rhumerus
					{
						OFFSET -3.136600 1.374050 -0.404650
						CHANNELS 3 Zrotation Yrotation Xrotation
						JOINT rradius
						{
							OFFSET -5.241900 -0.000000 -0.000000
							CHANNELS 3 Zrotation Yrotation Xrotation
							JOINT rwrist
							{
								OFFSET -3.444170 -0.000000 -0.000000
								CHANNELS 3 Zrotation Yrotation Xrotation
								JOINT rhand
								{
									OFFSET 0.000000 0.000000 0.000000
									CHANNELS 3 Zrotation Yrotation Xrotation
									JOINT rfingers
									{
										OFFSET -0.622530 -0.000000 -0.000000
										CHANNELS 3 Zrotation Yrotation Xrotation
										End Site
										{
											OFFSET 0.000000 0.000000 0.000000
										}
									}
								}
								JOINT rthumb
								{
									OFFSET 0.000000 0.000000 0.000000
									CHANNELS 3 Zrotation Yrotation Xrotation
									End Site
									{
										OFFSET 0.000000 0.000000 0.000000
									}
								}
							}
						}
					}
				}
			}
		}
	}
}
MOTION
Frames: 9
Frame Time: 0.008333
2.658485 16.245258 12.478142 6.864206 19.098814 8.577839 9.264084 1.203609 -0.414533 -26.932018 -30.884217 -40.629862 2.677046 15.266481 39.958952 5.381656 -9.937945 25.400351 0.147300 -2.473600 -6.816500 -12.033919 -3.710891 -0.908613 20.358345 12.439947 -27.334846 -12.376787 -19.765810 66.628417 -3.659964 7.429106 -11.695488 -0.460900 4.354900 -12.077400 8.739713 -2.095211 70.854756 -0.355462 1.980012 -0.830708 -7.486613 3.790735 -7.083080 -6.030957 -9.355234 5.831664 1.013185 -11.484644 8.911475 3.160000 -5.592300 -0.719000 -4.957108 -3.565858 4.495453 -75.356076 -0.018186 36.047668 38.662207 -53.981962 -14.954281 -0.299748 2.846155 0.010255 11.803054 -4.699386 -1.628500 -7.125000 0.000000 0.000000 -10.677000 22.249900 5.940300 4.826373 6.577818 3.292244 -10.832183 42.276117 -74.118014 4.314316 9.378346 0.269966 0.963863 0.193054 40.010763 -28.028058 11.037971 -5.477300 7.125000 0.000000 0.000000 -1.151000 -18.497100 -0.726500 
2.657191 16.246054 12.479734 6.852733 19.133626 8.594875 9.264701 1.200933 -0.415550 -26.908750 -30.909427 -40.648325 2.678665 15.268912 39.964607 5.381022 -9.942059 25.381122 0.152900 -2.519400 -6.943400 -12.039118 -3.714091 -0.909424 20.396255 12.442895 -27.320922 -12.366632 -19.761692 66.595240 -3.655428 7.408053 -11.720725 -0.457300 4.337900 -12.029200 8.814212 -2.127235 70.832655 -0.358594 1.982172 -0.826418 -7.529617 3.804150 -7.068920 -6.080367 -9.385518 5.850083 1.021410 -11.519892 8.902299 3.203100 -5.611500 -0.718100 -4.974743 -3.562216 4.500565 -75.378512 -0.077504 36.044125 38.577704 -53.931863 -14.897392 -0.288025 2.833233 0.079946 11.678525 -4.816914 -1.631700 -7.125000 0.000000 0.000000 -10.767500 22.151100 6.017200 4.823702 6.584860 3.299724 -10.968397 42.157902 -74.212170 4.382241 9.260918 0.286603 0.977217 0.198238 39.970273 -28.042371 11.075313 -5.494400 7.125000 0.000000 0.000000 -1.164700 -18.469200 -0.735900 
2.655599 16.245656 12.481028 6.853838 19.145943 8.598778 9.265987 1.196656 -0.418289 -26.916615 -30.908398 -40.646615 2.682302 15.272183 39.975435 5.378874 -9.949407 25.336510 0.161700 -2.590700 -7.141300 -12.043968 -3.717650 -0.910366 20.418117 12.452995 -27.296947 -12.359665 -19.758873 66.572377 -3.651477 7.388219 -11.747919 -0.457000 4.336800 -12.026300 8.882804 -2.143919 70.816253 -0.364753 1.985908 -0.820232 -7.615239 3.822210 -7.063856 -6.086634 -9.425486 5.910364 1.029710 -11.563548 8.885549 3.240600 -5.632200 -0.745200 -5.001327 -3.552540 4.510419 -75.319446 -0.136208 36.097077 38.500344 -53.882484 -14.850402 -0.276679 2.818446 0.102075 11.607574 -4.926755 -1.639900 -7.125000 0.000000 0.000000 -10.821100 22.059400 6.071200 4.827248 6.596444 3.308441 -11.077640 42.016963 -74.303086 4.462933 9.117302 0.306771 0.991981 0.203415 39.997332 -28.127983 11.120435 -5.530300 7.125000 0.000000 0.000000 -1.228300 -18.428100 -0.777200 
2.654306 16.246153 12.482321 6.837066 19.160222 8.616565 9.267808 1.195161 -0.423215 -26.895373 -30.900691 -40.671813 2.682397 15.273728 39.980303 5.382703 -9.975892 25.328048 0.166800 -2.631300 -7.253800 -12.047185 -3.719192 -0.911693 20.447922 12.469059 -27.290656 -12.348452 -19.756206 66.537374 -3.650778 7.385239 -11.755479 -0.452700 4.316700 -11.969400 8.911615 -2.149861 70.754212 -0.367725 1.983112 -0.811593 -7.640270 3.831495 -7.028202 -6.110456 -9.443071 5.929889 1.036494 -11.583375 8.878932 3.269800 -5.641700 -0.758200 -5.013627 -3.531479 4.515774 -75.324218 -0.228538 36.072026 38.416171 -53.834619 -14.803055 -0.272223 2.810865 0.112837 11.542421 -4.975746 -1.638500 -7.125000 0.000000 0.000000 -10.868700 22.021100 6.108600 4.830493 6.583531 3.326350 -11.247817 41.991710 -74.457224 4.543664 8.993541 0.328174 1.007316 0.212720 40.065537 -28.219155 11.161572 -5.562600 7.125000 0.000000 0.000000 -1.294600 -18.396000 -0.820100 
2.652713 16.246750 12.483018 6.822256 19.174827 8.613753 9.270034 1.192741 -0.426552 -26.890120 -30.893576 -40.669947 2.684172 15.274895 39.984589 5.382223 -9.986962 25.295553 0.175400 -2.697600 -7.437900 -12.050331 -3.721914 -0.919153 20.486711 12.447088 -27.258011 -12.335730 -19.749294 66.494893 -3.649708 7.382158 -11.764527 -0.452100 4.313400 -11.960200 8.945640 -2.160444 70.706971 -0.371700 1.975898 -0.802717 -7.677369 3.838826 -7.007360 -6.142904 -9.463046 5.993799 1.043551 -11.604184 8.859815 3.311500 -5.649900 -0.794700 -5.031658 -3.507860 4.524962 -75.302806 -0.302814 36.063481 38.332714 -53.787311 -14.761460 -0.267728 2.805371 0.122491 11.536173 -5.019412 -1.644900 -7.125000 0.000000 0.000000 -10.874100 21.983400 6.121300 4.831882 6.572505 3.346311 -11.376141 41.983241 -74.569013 4.624470 8.876616 0.349349 1.021326 0.221116 40.170206 -28.351219 11.216938 -5.612400 7.125000 0.000000 0.000000 -1.387700 -18.342500 -0.880700 
2.651519 16.248542 12.483714 6.807386 19.177560 8.609535 9.271713 1.190047 -0.429603 -26.877400 -30.889499 -40.662590 2.683618 15.273336 39.980476 5.381854 -9.985207 25.290481 0.180900 -2.739900 -7.555300 -12.052192 -3.724359 -0.926155 20.518905 12.421714 -27.229196 -12.322025 -19.741834 66.449497 -3.649293 7.383940 -11.764413 -0.456600 4.334600 -12.020000 8.962377 -2.165294 70.665414 -0.375552 1.963850 -0.795229 -7.706510 3.843659 -6.981384 -6.175767 -9.474414 6.021051 1.048876 -11.615772 8.839805 3.345300 -5.654300 -0.817500 -5.049435 -3.485444 4.530016 -75.273233 -0.388474 36.057062 38.262941 -53.747556 -14.732392 -0.262947 2.805557 0.094089 11.601365 -5.068840 -1.663900 -7.125000 0.000000 0.000000 -10.828600 21.930600 6.108000 4.832708 6.559836 3.364205 -11.516081 41.997745 -74.686894 4.701725 8.770885 0.369207 1.034448 0.229361 40.323348 -28.479633 11.248202 -5.648300 7.125000 0.000000 0.000000 -1.479000 -18.316200 -0.939600 
2.650325 16.250134 12.484312 6.788176 19.169975 8.584097 9.273448 1.186444 -0.432042 -26.875367 -30.867215 -40.625911 2.683429 15.269324 39.971086 5.378685 -9.977535 25.259380 0.187800 -2.791000 -7.697400 -12.056523 -3.726547 -0.934947 20.560818 12.397495 -27.174647 -12.305085 -19.731243 66.394096 -3.646458 7.381042 -11.744607 -0.457500 4.339100 -12.032800 8.999525 -2.168077 70.649250 -0.380284 1.968529 -0.788770 -7.755377 3.859369 -6.946541 -6.182264 -9.496794 6.007629 1.048893 -11.640758 8.829903 3.362000 -5.666700 -0.817900 -5.064386 -3.465070 4.532378 -75.247877 -0.518550 36.083584 38.178883 -53.697294 -14.687867 -0.257372 2.802714 0.075456 11.627939 -5.125373 -1.678100 -7.125000 0.000000 0.000000 -10.811200 21.875700 6.111600 4.836027 6.550348 3.374729 -11.644055 41.980088 -74.783657 4.766062 8.678974 0.385951 1.045980 0.236725 40.457468 -28.598310 11.226375 -5.654400 7.125000 0.000000 0.000000 -1.567300 -18.348300 -0.994600 
2.648534 16.251328 12.484610 6.787260 19.167297 8.573887 9.274007 1.183602 -0.433905 -26.882212 -30.847785 -40.603345 2.679314 15.263191 39.953999 5.379457 -9.978717 25.262848 0.190800 -2.813300 -7.759400 -12.057082 -3.728710 -0.942094 20.575752 12.366255 -27.139878 -12.289597 -19.721779 66.343326 -3.649639 7.403899 -11.713709 -0.453500 4.320100 -11.978900 9.016164 -2.165618 70.619209 -0.384079 1.964940 -0.784331 -7.809545 3.869043 -6.910442 -6.123960 -9.516054 5.955103 1.034852 -11.661910 8.828266 3.333400 -5.676400 -0.809500 -5.070570 -3.446141 4.530186 -75.195612 -0.628117 36.122612 38.135436 -53.669567 -14.672668 -0.257351 2.806484 0.015714 11.739914 -5.124459 -1.694900 -7.125000 0.000000 0.000000 -10.732100 21.867500 6.067300 4.845870 6.540939 3.377408 -11.704367 41.996080 -74.795372 4.796494 8.646571 0.395096 1.050482 0.242165 40.590859 -28.744899 11.165924 -5.648600 7.125000 0.000000 0.000000 -1.674900 -18.413500 -1.060500 
2.647638 16.253816 12.484909 6.752326 19.162041 8.540354 9.276050 1.179214 -0.436225 -26.866926 -30.821235 -40.561682 2.674952 15.254914 39.931756 5.379593 -9.975847 25.263089 0.196600 -2.855400 -7.876500 -12.063143 -3.730760 -0.952280 20.640979 12.342880 -27.067936 -12.267591 -19.708099 66.270222 -3.646965 7.400145 -11.704167 -0.453400 4.319700 -11.977800 9.062482 -2.184164 70.595428 -0.389122 1.953437 -0.779390 -7.885696 3.879704 -6.863537 -6.062183 -9.531932 5.874523 1.014732 -11.677298 8.824133 3.300800 -5.683500 -0.792700 -5.083278 -3.422598 4.525302 -75.130047 -0.743190 36.170840 38.128170 -53.657197 -14.677761 -0.259831 2.809226 -0.041224 11.851981 -5.097530 -1.706300 -7.125000 0.000000 0.000000 -10.652700 21.886300 6.016200 4.855499 6.530019 3.379448 -11.765208 42.041767 -74.812534 4.822519 8.631276 0.401544 1.053580 0.249676 40.649375 -28.870311 11.046810 -5.605400 7.125000 0.000000 0.000000 -1.771400 -18.547200 -1.116500 
